<?xml version="1.0" encoding="utf-8"?>
<!-- Generator: Adobe Illustrator 18.1.1, SVG Export Plug-In . SVG Version: 6.00 Build 0)  -->
<!DOCTYPE svg PUBLIC "-//W3C//DTD SVG 1.1//EN" "http://www.w3.org/Graphics/SVG/1.1/DTD/svg11.dtd">
<svg version="1.1" id="Layer_1" xmlns="http://www.w3.org/2000/svg" xmlns:xlink="http://www.w3.org/1999/xlink" x="0px" y="0px"
	 width="90px" height="90px" viewBox="0 0 90 90" enable-background="new 0 0 90 90" xml:space="preserve">
<circle fill="#A6ACB2" cx="45" cy="45" r="45"/>
<path fill="#EFEAE1" d="M69,59h2c2.209,0,4-1.791,4-4v-7.343c0-1.061-0.421-2.078-1.172-2.828l-7.485-7.485
	c-1.5-1.5-3.535-2.343-5.657-2.343H53v24h6H69z"/>
<g>
	<path fill="#DAE3E6" d="M57,47h17.935c-0.136-0.817-0.514-1.579-1.107-2.172L68,39H57V47z"/>
	<path fill="#232E38" d="M74.935,48H57c-0.553,0-1-0.448-1-1v-8c0-0.552,0.447-1,1-1h11c0.266,0,0.52,0.105,0.707,0.293l5.828,5.828
		c0.733,0.732,1.212,1.671,1.386,2.715c0.048,0.29-0.033,0.586-0.224,0.811C75.508,47.871,75.229,48,74.935,48z M58,46h15.499
		c-0.109-0.167-0.235-0.322-0.378-0.464L67.586,40H58V46z"/>
</g>
<path fill="#E45544" d="M75,54h-4c-0.553,0-1-0.448-1-1s0.447-1,1-1h4c0.553,0,1,0.448,1,1S75.553,54,75,54z"/>
<path fill="#383128" d="M71,60H51c-0.553,0-1-0.448-1-1V35c0-0.552,0.447-1,1-1h9.687c2.404,0,4.664,0.936,6.363,2.636l7.485,7.485
	c0.944,0.944,1.465,2.2,1.465,3.535V55C76,57.757,73.757,60,71,60z M52,58h19c1.654,0,3-1.346,3-3v-7.343
	c0-0.79-0.32-1.563-0.879-2.121l-7.485-7.485C64.313,36.728,62.557,36,60.687,36H52V58z"/>
<g>
	<path fill="#76D03B" d="M53,53V33c0-3.314-2.686-6-6-6H23c-3.314,0-6,2.686-6,6v20H53z"/>
	<path fill="#2B3F15" d="M53,54H17c-0.553,0-1-0.448-1-1V33c0-3.86,3.141-7,7-7h24c3.859,0,7,3.14,7,7v20C54,53.552,53.553,54,53,54
		z M18,52h34V33c0-2.757-2.243-5-5-5H23c-2.757,0-5,2.243-5,5V52z"/>
</g>
<g>
	<g>
		<line fill="#76D03B" x1="21" y1="47" x2="21" y2="51"/>
		<path fill="#2B3F15" d="M21,52c-0.553,0-1-0.448-1-1v-4c0-0.552,0.447-1,1-1s1,0.448,1,1v4C22,51.552,21.553,52,21,52z"/>
	</g>
	<g>
		<line fill="#76D03B" x1="25" y1="47" x2="25" y2="51"/>
		<path fill="#2B3F15" d="M25,52c-0.553,0-1-0.448-1-1v-4c0-0.552,0.447-1,1-1s1,0.448,1,1v4C26,51.552,25.553,52,25,52z"/>
	</g>
	<g>
		<line fill="#76D03B" x1="29" y1="47" x2="29" y2="51"/>
		<path fill="#2B3F15" d="M29,52c-0.553,0-1-0.448-1-1v-4c0-0.552,0.447-1,1-1s1,0.448,1,1v4C30,51.552,29.553,52,29,52z"/>
	</g>
	<g>
		<line fill="#76D03B" x1="33" y1="47" x2="33" y2="51"/>
		<path fill="#2B3F15" d="M33,52c-0.553,0-1-0.448-1-1v-4c0-0.552,0.447-1,1-1s1,0.448,1,1v4C34,51.552,33.553,52,33,52z"/>
	</g>
	<g>
		<line fill="#76D03B" x1="37" y1="47" x2="37" y2="51"/>
		<path fill="#2B3F15" d="M37,52c-0.553,0-1-0.448-1-1v-4c0-0.552,0.447-1,1-1s1,0.448,1,1v4C38,51.552,37.553,52,37,52z"/>
	</g>
	<g>
		<line fill="#76D03B" x1="41" y1="47" x2="41" y2="51"/>
		<path fill="#2B3F15" d="M41,52c-0.553,0-1-0.448-1-1v-4c0-0.552,0.447-1,1-1s1,0.448,1,1v4C42,51.552,41.553,52,41,52z"/>
	</g>
	<g>
		<line fill="#76D03B" x1="45" y1="47" x2="45" y2="51"/>
		<path fill="#2B3F15" d="M45,52c-0.553,0-1-0.448-1-1v-4c0-0.552,0.447-1,1-1s1,0.448,1,1v4C46,51.552,45.553,52,45,52z"/>
	</g>
	<g>
		<line fill="#76D03B" x1="49" y1="47" x2="49" y2="51"/>
		<path fill="#2B3F15" d="M49,52c-0.553,0-1-0.448-1-1v-4c0-0.552,0.447-1,1-1s1,0.448,1,1v4C50,51.552,49.553,52,49,52z"/>
	</g>
</g>
<g>
	<path fill="#EFEAE1" d="M17,51v2c0,3.314,2.686,6,6,6h30v-8H17z"/>
	<path fill="#383128" d="M53,60H23c-3.859,0-7-3.14-7-7v-2c0-0.552,0.447-1,1-1h36c0.553,0,1,0.448,1,1v8C54,59.552,53.553,60,53,60
		z M18,52v1c0,2.757,2.243,5,5,5h29v-6H18z"/>
</g>
<g>
	<g>
		<circle fill="#A6ACB2" cx="30" cy="60" r="5"/>
		<path fill="#232E38" d="M30,66c-3.309,0-6-2.691-6-6s2.691-6,6-6s6,2.691,6,6S33.309,66,30,66z M30,56c-2.206,0-4,1.794-4,4
			s1.794,4,4,4s4-1.794,4-4S32.206,56,30,56z"/>
	</g>
	<g>
		<circle fill="#A6ACB2" cx="30" cy="60" r="1"/>
		<circle fill="#232E38" cx="30" cy="60" r="2"/>
	</g>
	<g>
		<circle fill="#A6ACB2" cx="64" cy="60" r="5"/>
		<path fill="#232E38" d="M64,66c-3.309,0-6-2.691-6-6s2.691-6,6-6s6,2.691,6,6S67.309,66,64,66z M64,56c-2.206,0-4,1.794-4,4
			s1.794,4,4,4s4-1.794,4-4S66.206,56,64,56z"/>
	</g>
	<g>
		<circle fill="#A6ACB2" cx="64" cy="60" r="1"/>
		<circle fill="#232E38" cx="64" cy="60" r="2"/>
	</g>
</g>
</svg>
